<svg version="1.1" id="Layer_1" xmlns="http://www.w3.org/2000/svg" xmlns:xlink="http://www.w3.org/1999/xlink" x="0px" y="0px"
	 width="100%" viewBox="0 0 128 128" enable-background="new 0 0 128 128" xml:space="preserve">
<path fill="#FFFFFF" opacity="1.000000" stroke="none" 
	d="
M129.000000,43.000000 
	C129.000000,71.999992 129.000000,100.499992 129.000000,129.000000 
	C86.333344,129.000000 43.666683,129.000000 1.000019,129.000000 
	C1.000013,86.333344 1.000013,43.666695 1.000006,1.000031 
	C43.666645,1.000020 86.333290,1.000020 128.999969,1.000010 
	C129.000000,14.833333 129.000000,28.666666 129.000000,43.000000 
M9.000447,57.500008 
	C9.000247,71.831520 8.815763,86.166039 9.050153,100.493713 
	C9.299192,115.716911 18.253548,124.576241 33.059799,124.877571 
	C54.381569,125.311501 75.729050,125.393570 97.045815,124.850601 
	C112.019394,124.469185 120.494781,115.860489 120.862900,100.989830 
	C121.390610,79.672264 121.067307,58.331589 120.968315,37.001427 
	C120.918571,26.282217 115.568878,18.080074 106.027817,14.771867 
	C101.760757,13.292335 97.042427,13.114319 92.183693,12.286862 
	C92.139572,11.999733 92.063644,11.213570 91.893684,10.448290 
	C90.948799,6.193765 88.263779,3.733865 84.332611,6.221434 
	C79.692284,9.157739 75.411613,6.739711 70.984550,6.788306 
	C68.058456,6.820424 65.131180,6.753218 62.205307,6.793882 
	C58.540859,6.844813 54.500935,8.004290 51.286762,6.845078 
	C42.972668,3.846553 42.975616,3.517277 40.930588,12.198281 
	C40.872059,12.446729 40.550365,12.633181 40.213791,12.997444 
	C37.526333,12.997444 34.684490,12.802700 31.877325,13.032173 
	C21.408068,13.887988 11.682639,19.095264 10.114835,31.210365 
	C9.035782,39.548679 9.323565,48.063877 9.000447,57.500008 
z"/>
<path fill="#491807" opacity="1.000000" stroke="none" 
	d="
M9.000447,57.000011 
	C9.323565,48.063877 9.035782,39.548679 10.114835,31.210365 
	C11.682639,19.095264 21.408068,13.887988 31.877325,13.032173 
	C34.684490,12.802700 37.526333,12.997444 40.213791,12.997444 
	C40.550365,12.633181 40.872059,12.446729 40.930588,12.198281 
	C42.975616,3.517277 42.972668,3.846553 51.286762,6.845078 
	C54.500935,8.004290 58.540859,6.844813 62.205307,6.793882 
	C65.131180,6.753218 68.058456,6.820424 70.984550,6.788306 
	C75.411613,6.739711 79.692284,9.157739 84.332611,6.221434 
	C88.263779,3.733865 90.948799,6.193765 91.893684,10.448290 
	C92.063644,11.213570 92.139572,11.999733 92.183693,12.286862 
	C97.042427,13.114319 101.760757,13.292335 106.027817,14.771867 
	C115.568878,18.080074 120.918571,26.282217 120.968315,37.001427 
	C121.067307,58.331589 121.390610,79.672264 120.862900,100.989830 
	C120.494781,115.860489 112.019394,124.469185 97.045815,124.850601 
	C75.729050,125.393570 54.381569,125.311501 33.059799,124.877571 
	C18.253548,124.576241 9.299192,115.716911 9.050153,100.493713 
	C8.815763,86.166039 9.000247,71.831520 9.000447,57.000011 
M15.016104,111.706017 
	C18.174953,114.509880 21.003239,119.119576 24.556290,119.769966 
	C34.186932,121.532890 44.125118,121.615730 54.761040,122.427338 
	C47.733337,116.608833 41.911655,111.788834 35.866039,106.270912 
	C34.926098,103.974258 33.440975,101.736603 33.184483,99.365997 
	C32.865253,96.415558 31.880890,94.965202 29.185678,93.435310 
	C26.924465,92.151772 24.578327,89.020096 24.350983,86.517616 
	C23.603592,78.290771 23.460693,69.965332 23.764685,61.702755 
	C23.951962,56.612522 26.539661,51.426632 25.946548,46.538891 
	C25.228409,40.620834 27.425016,37.468410 31.849335,34.703529 
	C32.695877,34.174503 33.513096,33.159306 33.777031,32.210697 
	C35.172009,27.197073 36.385681,22.133003 37.653709,17.120096 
	C22.501160,14.227636 12.309356,22.354855 12.272215,38.267292 
	C12.224474,58.721172 12.125201,79.176949 12.382005,99.627716 
	C12.429793,103.433395 14.054363,107.219261 15.016104,111.706017 
M110.870972,21.249117 
	C107.080116,17.779831 102.624557,16.248888 97.128418,16.372488 
	C99.002258,19.514490 100.653748,22.283678 102.472061,25.958878 
	C102.649361,28.603878 102.837440,31.248209 103.001839,33.894012 
	C103.419731,40.619740 103.107971,47.487331 104.395103,54.041500 
	C106.742432,65.994301 106.285759,77.607330 101.874512,88.854431 
	C98.586533,97.237610 92.430260,102.760773 83.156693,104.233261 
	C74.829483,105.555489 68.395638,101.912216 62.290062,96.848152 
	C58.354324,93.583794 54.273224,90.336021 49.802284,87.924294 
	C46.017212,85.882553 41.564259,85.996727 38.223366,89.380661 
	C34.757065,92.891617 34.578949,97.510132 36.733639,101.453415 
	C42.941650,112.814636 53.152256,119.630669 65.573608,121.354424 
	C75.861626,122.782120 86.509933,121.826477 96.991211,121.593597 
	C109.562645,121.314270 117.403999,113.787018 117.563980,101.309097 
	C117.841362,79.674179 117.721626,58.032505 117.576408,36.394951 
	C117.538773,30.787630 116.063675,25.505234 110.870972,21.249117 
M52.324234,85.921547 
	C54.530857,87.391220 56.642185,89.038002 58.966633,90.288704 
	C62.378815,92.124664 65.867104,94.871719 69.458946,95.101089 
	C76.825195,95.571465 84.283653,94.661522 91.700478,94.253174 
	C96.403519,93.994255 98.595444,90.990845 99.936272,86.816986 
	C103.533516,75.619225 104.264565,64.360413 101.229843,52.922783 
	C99.488380,46.359325 97.864067,46.004864 92.416206,49.734245 
	C89.794495,51.528973 85.950844,53.150024 83.094299,52.599403 
	C79.156601,51.840393 79.918686,47.416008 79.868858,44.120811 
	C79.864197,43.812756 79.654213,43.507801 79.196251,42.283955 
	C68.828796,41.931702 58.079868,41.504150 47.326706,41.304184 
	C46.327114,41.285595 44.900986,42.492516 44.351852,43.500347 
	C40.892490,49.849350 36.333904,53.268852 28.650749,49.397961 
	C25.277565,62.160721 24.802780,74.507965 27.194656,86.865883 
	C27.616388,89.044823 30.342003,90.777847 32.208023,92.955246 
	C38.716274,83.788391 42.374638,82.574722 52.324234,85.921547 
M75.843094,39.710873 
	C79.049614,40.204803 81.598427,39.717670 84.402275,37.357536 
	C86.628258,35.483826 90.410469,35.138432 93.573166,34.816540 
	C95.514641,34.618946 97.590729,35.743958 99.697075,36.298962 
	C100.920059,30.103338 100.254860,24.713545 96.025398,20.134209 
	C92.841042,16.686432 89.687263,13.210411 86.045280,9.228011 
	C81.684975,13.139977 75.860909,10.256822 70.096809,9.793200 
	C66.969650,9.541673 63.703655,9.443197 60.661171,10.064071 
	C55.521488,11.112911 50.543468,12.514832 46.078892,8.357525 
	C45.980942,8.266315 45.523411,8.561256 44.747849,8.868516 
	C46.140148,14.007545 42.806435,17.383968 40.033691,21.299522 
	C38.131245,23.986076 37.397522,27.668419 36.799358,31.022968 
	C36.577652,32.266354 38.005016,34.051315 39.073887,35.233433 
	C43.180500,39.775146 48.603016,38.987408 54.022968,38.574497 
	C54.022968,37.561420 54.022968,36.537140 54.022968,35.283501 
	C58.995277,35.283501 63.683830,35.283501 68.372383,35.283501 
	C68.224297,35.864388 68.076210,36.445274 67.928131,37.026165 
	C69.130516,37.751820 70.265213,38.654907 71.556503,39.147568 
	C72.608826,39.549061 73.848488,39.459560 75.843094,39.710873 
M83.141388,42.845730 
	C83.372276,45.322922 83.603165,47.800117 83.834061,50.277309 
	C86.141571,49.455223 88.464142,48.672710 90.752930,47.801453 
	C93.920563,46.595650 97.062767,45.323074 100.757858,43.865257 
	C100.076561,40.948803 97.695686,38.264496 93.574303,37.403717 
	C89.100494,36.469326 85.869339,38.523769 83.141388,42.845730 
M41.252804,40.283817 
	C39.903679,39.348423 38.654114,38.196117 37.185116,37.521896 
	C33.928780,36.027344 29.510900,38.180702 28.630358,41.876347 
	C27.747517,45.581650 30.446209,47.245037 33.368286,48.179146 
	C37.124409,49.379879 40.437290,46.350269 41.252804,40.283817 
M72.292000,98.160561 
	C71.532379,98.160561 70.772758,98.160561 69.707802,98.160561 
	C76.200836,103.216934 84.623001,103.193558 89.511818,98.204758 
	C83.958862,98.204758 78.541130,98.204758 72.292000,98.160561 
z"/>
<path fill="#FD0000" opacity="1.000000" stroke="none" 
	d="
M51.958733,85.789886 
	C42.374638,82.574722 38.716274,83.788391 32.208023,92.955246 
	C30.342003,90.777847 27.616388,89.044823 27.194656,86.865883 
	C24.802780,74.507965 25.277565,62.160721 28.650749,49.397961 
	C36.333904,53.268852 40.892490,49.849350 44.351852,43.500347 
	C44.900986,42.492516 46.327114,41.285595 47.326706,41.304184 
	C58.079868,41.504150 68.828796,41.931702 79.196251,42.283955 
	C79.654213,43.507801 79.864197,43.812756 79.868858,44.120811 
	C79.918686,47.416008 79.156601,51.840393 83.094299,52.599403 
	C85.950844,53.150024 89.794495,51.528973 92.416206,49.734245 
	C97.864067,46.004864 99.488380,46.359325 101.229843,52.922783 
	C104.264565,64.360413 103.533516,75.619225 99.936272,86.816986 
	C98.595444,90.990845 96.403519,93.994255 91.700478,94.253174 
	C84.283653,94.661522 76.825195,95.571465 69.458946,95.101089 
	C65.867104,94.871719 62.378815,92.124664 58.966633,90.288704 
	C56.642185,89.038002 54.530857,87.391220 51.958733,85.789886 
M68.973183,73.448540 
	C71.512390,72.072762 74.051598,70.696983 77.939011,68.590736 
	C69.373039,64.009857 62.228455,60.189098 54.464092,56.036903 
	C54.464092,64.838638 54.464092,72.431839 54.464092,81.009460 
	C59.605213,78.344772 63.965847,76.084618 68.973183,73.448540 
z"/>
<path fill="#FAA14D" opacity="1.000000" stroke="none" 
	d="
M111.213379,21.855844 
	C116.063675,25.505234 117.538773,30.787630 117.576408,36.394951 
	C117.721626,58.032505 117.841362,79.674179 117.563980,101.309097 
	C117.403999,113.787018 109.562645,121.314270 96.991211,121.593597 
	C86.509933,121.826477 75.861626,122.782120 65.573608,121.354424 
	C53.152256,119.630669 42.941650,112.814636 36.733639,101.453415 
	C34.578949,97.510132 34.757065,92.891617 38.223366,89.380661 
	C41.564259,85.996727 46.017212,85.882553 49.802284,87.924294 
	C54.273224,90.336021 58.354324,93.583794 62.290062,96.848152 
	C68.395638,101.912216 74.829483,105.555489 83.156693,104.233261 
	C92.430260,102.760773 98.586533,97.237610 101.874512,88.854431 
	C106.285759,77.607330 106.742432,65.994301 104.395103,54.041500 
	C103.107971,47.487331 103.419731,40.619740 103.001839,33.894012 
	C102.837440,31.248209 102.649361,28.603878 102.779984,25.407873 
	C105.796394,23.856527 108.504883,22.856186 111.213379,21.855844 
z"/>
<path fill="#F9A04C" opacity="1.000000" stroke="none" 
	d="
M14.951231,111.014275 
	C14.054363,107.219261 12.429793,103.433395 12.382005,99.627716 
	C12.125201,79.176949 12.224474,58.721172 12.272215,38.267292 
	C12.309356,22.354855 22.501160,14.227636 37.653709,17.120096 
	C36.385681,22.133003 35.172009,27.197073 33.777031,32.210697 
	C33.513096,33.159306 32.695877,34.174503 31.849335,34.703529 
	C27.425016,37.468410 25.228409,40.620834 25.946548,46.538891 
	C26.539661,51.426632 23.951962,56.612522 23.764685,61.702755 
	C23.460693,69.965332 23.603592,78.290771 24.350983,86.517616 
	C24.578327,89.020096 26.924465,92.151772 29.185678,93.435310 
	C31.880890,94.965202 32.865253,96.415558 33.184483,99.365997 
	C33.440975,101.736603 34.926098,103.974258 35.621078,106.649178 
	C31.391403,109.689255 28.108206,113.971382 22.492294,112.956284 
	C19.944830,112.495827 17.462894,111.672813 14.951231,111.014275 
z"/>
<path fill="#FBA24D" opacity="1.000000" stroke="none" 
	d="
M75.424088,39.649323 
	C73.848488,39.459560 72.608826,39.549061 71.556503,39.147568 
	C70.265213,38.654907 69.130516,37.751820 67.928131,37.026165 
	C68.076210,36.445274 68.224297,35.864388 68.372383,35.283501 
	C63.683830,35.283501 58.995277,35.283501 54.022968,35.283501 
	C54.022968,36.537140 54.022968,37.561420 54.022968,38.574497 
	C48.603016,38.987408 43.180500,39.775146 39.073887,35.233433 
	C38.005016,34.051315 36.577652,32.266354 36.799358,31.022968 
	C37.397522,27.668419 38.131245,23.986076 40.033691,21.299522 
	C42.806435,17.383968 46.140148,14.007545 44.747849,8.868516 
	C45.523411,8.561256 45.980942,8.266315 46.078892,8.357525 
	C50.543468,12.514832 55.521488,11.112911 60.661171,10.064071 
	C63.703655,9.443197 66.969650,9.541673 70.096809,9.793200 
	C75.860909,10.256822 81.684975,13.139977 86.045280,9.228011 
	C89.687263,13.210411 92.841042,16.686432 96.025398,20.134209 
	C100.254860,24.713545 100.920059,30.103338 99.697075,36.298962 
	C97.590729,35.743958 95.514641,34.618946 93.573166,34.816540 
	C90.410469,35.138432 86.628258,35.483826 84.402275,37.357536 
	C81.598427,39.717670 79.049614,40.204803 75.424088,39.649323 
M78.867142,35.080494 
	C77.839233,33.689804 77.022896,31.984667 75.671196,31.075212 
	C75.183578,30.747137 72.771988,32.095257 72.402367,33.104679 
	C72.025253,34.134560 72.980186,36.761654 73.523499,36.811287 
	C75.160164,36.960777 76.880302,36.196415 78.867142,35.080494 
M50.969585,35.193798 
	C50.215149,33.601925 49.460712,32.010052 48.706276,30.418180 
	C47.456161,31.016588 45.801174,31.322237 45.087833,32.308769 
	C44.545994,33.058121 44.969704,35.640236 45.365673,35.735447 
	C47.023937,36.134163 48.833668,35.902901 50.969585,35.193798 
z"/>
<path fill="#DD7834" opacity="1.000000" stroke="none" 
	d="
M14.983667,111.360146 
	C17.462894,111.672813 19.944830,112.495827 22.492294,112.956284 
	C28.108206,113.971382 31.391403,109.689255 35.733047,106.998138 
	C41.911655,111.788834 47.733337,116.608833 54.761040,122.427338 
	C44.125118,121.615730 34.186932,121.532890 24.556290,119.769966 
	C21.003239,119.119576 18.174953,114.509880 14.983667,111.360146 
z"/>
<path fill="#F59E4B" opacity="1.000000" stroke="none" 
	d="
M83.309219,42.511467 
	C85.869339,38.523769 89.100494,36.469326 93.574303,37.403717 
	C97.695686,38.264496 100.076561,40.948803 100.757858,43.865257 
	C97.062767,45.323074 93.920563,46.595650 90.752930,47.801453 
	C88.464142,48.672710 86.141571,49.455223 83.834061,50.277309 
	C83.603165,47.800117 83.372276,45.322922 83.309219,42.511467 
z"/>
<path fill="#F59E4B" opacity="1.000000" stroke="none" 
	d="
M41.491493,40.568161 
	C40.437290,46.350269 37.124409,49.379879 33.368286,48.179146 
	C30.446209,47.245037 27.747517,45.581650 28.630358,41.876347 
	C29.510900,38.180702 33.928780,36.027344 37.185116,37.521896 
	C38.654114,38.196117 39.903679,39.348423 41.491493,40.568161 
z"/>
<path fill="#D77632" opacity="1.000000" stroke="none" 
	d="
M111.042175,21.552481 
	C108.504883,22.856186 105.796394,23.856527 102.696571,24.954868 
	C100.653748,22.283678 99.002258,19.514490 97.128418,16.372488 
	C102.624557,16.248888 107.080116,17.779831 111.042175,21.552481 
z"/>
<path fill="#D06C31" opacity="1.000000" stroke="none" 
	d="
M72.707703,98.182663 
	C78.541130,98.204758 83.958862,98.204758 89.511818,98.204758 
	C84.623001,103.193558 76.200836,103.216934 69.707802,98.160561 
	C70.772758,98.160561 71.532379,98.160561 72.707703,98.182663 
z"/>
<path fill="#511F12" opacity="1.000000" stroke="none" 
	d="
M68.649826,73.636505 
	C63.965847,76.084618 59.605213,78.344772 54.464092,81.009460 
	C54.464092,72.431839 54.464092,64.838638 54.464092,56.036903 
	C62.228455,60.189098 69.373039,64.009857 77.939011,68.590736 
	C74.051598,70.696983 71.512390,72.072762 68.649826,73.636505 
M70.552834,67.672737 
	C66.145332,65.302391 61.737827,62.932041 56.933769,60.348427 
	C56.933769,66.215851 56.933769,71.107574 56.933769,77.410957 
	C62.205372,73.932198 66.688210,70.973953 70.552834,67.672737 
z"/>
<path fill="#822D0C" opacity="1.000000" stroke="none" 
	d="
M78.717514,35.434464 
	C76.880302,36.196415 75.160164,36.960777 73.523499,36.811287 
	C72.980186,36.761654 72.025253,34.134560 72.402367,33.104679 
	C72.771988,32.095257 75.183578,30.747137 75.671196,31.075212 
	C77.022896,31.984667 77.839233,33.689804 78.717514,35.434464 
z"/>
<path fill="#7D2909" opacity="1.000000" stroke="none" 
	d="
M50.778748,35.548119 
	C48.833668,35.902901 47.023937,36.134163 45.365673,35.735447 
	C44.969704,35.640236 44.545994,33.058121 45.087833,32.308769 
	C45.801174,31.322237 47.456161,31.016588 48.706276,30.418180 
	C49.460712,32.010052 50.215149,33.601925 50.778748,35.548119 
z"/>
<path fill="#F9F7F7" opacity="1.000000" stroke="none" 
	d="
M70.861938,67.844223 
	C66.688210,70.973953 62.205372,73.932198 56.933769,77.410957 
	C56.933769,71.107574 56.933769,66.215851 56.933769,60.348427 
	C61.737827,62.932041 66.145332,65.302391 70.861938,67.844223 
z"/>
</svg>